<?xml version="1.0" standalone="no"?>
<!DOCTYPE svg PUBLIC "-//W3C//DTD SVG 20010904//EN"
        "http://www.w3.org/TR/2001/REC-SVG-20010904/DTD/svg10.dtd">
<svg version="1.0" xmlns="http://www.w3.org/2000/svg"
     width="24px" height="24px" viewBox="0 0 2139.000000 2139.000000"
     preserveAspectRatio="xMidYMid meet">
    <g transform="translate(0.000000,2139.000000) scale(0.100000,-0.100000)"
       fill="#000000" stroke="none">
        <path d="M10 10690 l0 -10690 10690 0 10690 0 0 10690 0 10690 -10690 0
-10690 0 0 -10690z m21330 5 l0 -10645 -10645 0 -10645 0 0 10645 0 10645
10645 0 10645 0 0 -10645z"/>
        <path d="M13878 15145 c-5 -5 -8 -17 -8 -27 0 -10 -4 -18 -9 -18 -5 0 -12 -18
-16 -40 -4 -22 -10 -40 -14 -40 -4 0 -13 -29 -20 -65 -7 -36 -17 -65 -21 -65
-4 0 -13 -27 -20 -60 -7 -33 -16 -60 -20 -60 -4 0 -13 -27 -20 -60 -7 -33 -16
-60 -21 -60 -4 0 -11 -20 -15 -45 -3 -25 -10 -45 -14 -45 -4 0 -13 -27 -20
-60 -7 -33 -16 -60 -20 -60 -4 0 -13 -27 -20 -60 -7 -33 -16 -60 -20 -60 -4 0
-11 -16 -14 -35 -4 -19 -11 -35 -15 -35 -5 0 -14 -27 -21 -60 -7 -33 -16 -60
-20 -60 -4 0 -13 -29 -20 -65 -7 -36 -16 -65 -20 -65 -4 0 -13 -27 -20 -60 -7
-33 -16 -60 -20 -60 -5 0 -11 -18 -15 -40 -4 -22 -10 -40 -15 -40 -4 0 -13
-27 -20 -60 -7 -33 -16 -60 -20 -60 -3 0 -12 -29 -19 -65 -7 -36 -17 -65 -21
-65 -5 0 -11 -18 -15 -40 -4 -22 -10 -40 -15 -40 -4 0 -13 -27 -20 -60 -7 -33
-16 -60 -20 -60 -4 0 -14 -29 -21 -65 -7 -36 -16 -65 -19 -65 -4 0 -13 -27
-20 -60 -7 -33 -16 -60 -20 -60 -5 0 -11 -18 -15 -40 -4 -22 -10 -40 -15 -40
-4 0 -13 -27 -20 -60 -7 -33 -16 -60 -21 -60 -4 0 -11 -20 -15 -45 -3 -26 -13
-52 -20 -60 -7 -7 -16 -31 -20 -54 -4 -23 -10 -41 -14 -41 -4 0 -13 -27 -20
-60 -7 -33 -16 -60 -20 -60 -4 0 -13 -27 -20 -60 -7 -33 -16 -60 -20 -60 -4 0
-13 -27 -20 -60 -7 -33 -16 -60 -20 -60 -4 0 -11 -20 -14 -45 -4 -25 -11 -45
-15 -45 -5 0 -14 -27 -21 -60 -7 -33 -16 -60 -20 -60 -4 0 -13 -27 -20 -60 -7
-33 -16 -60 -20 -60 -4 0 -14 -29 -21 -65 -7 -36 -16 -65 -20 -65 -4 0 -10
-18 -14 -40 -4 -22 -10 -40 -15 -40 -4 0 -13 -27 -20 -60 -7 -33 -16 -60 -20
-60 -4 0 -13 -27 -20 -60 -7 -33 -16 -60 -20 -60 -4 0 -11 -20 -14 -45 -4 -25
-11 -45 -15 -45 -5 0 -14 -27 -21 -60 -7 -33 -16 -60 -21 -60 -4 0 -13 -25
-20 -55 -7 -30 -15 -55 -19 -55 -4 0 -13 -27 -20 -60 -7 -33 -16 -60 -20 -60
-5 0 -11 -18 -15 -40 -4 -22 -10 -40 -15 -40 -4 0 -13 -29 -20 -65 -7 -36 -16
-65 -20 -65 -4 0 -13 -27 -20 -60 -7 -33 -16 -60 -20 -60 -5 0 -11 -18 -15
-40 -4 -22 -10 -40 -15 -40 -4 0 -14 -29 -21 -65 -7 -36 -16 -65 -19 -65 -4 0
-13 -27 -20 -60 -7 -33 -16 -60 -20 -60 -4 0 -13 -27 -20 -60 -7 -33 -16 -60
-20 -60 -5 0 -11 -18 -15 -40 -4 -22 -10 -40 -15 -40 -4 0 -13 -29 -20 -65 -7
-36 -16 -65 -20 -65 -4 0 -13 -27 -20 -60 -7 -33 -16 -60 -20 -60 -5 0 -11
-18 -15 -40 -4 -22 -10 -40 -14 -40 -4 0 -13 -25 -20 -55 -7 -30 -16 -55 -20
-55 -5 0 -14 -27 -21 -60 -7 -33 -16 -60 -20 -60 -3 0 -12 -29 -19 -65 -7 -36
-17 -65 -21 -65 -5 0 -11 -18 -15 -40 -4 -22 -10 -40 -15 -40 -4 0 -13 -27
-20 -60 -7 -33 -16 -60 -20 -60 -5 0 -11 -18 -15 -39 -8 -49 -27 -45 -45 10
-7 21 -17 39 -21 39 -4 0 -10 14 -14 30 -4 16 -11 30 -16 30 -5 0 -14 20 -20
45 -6 25 -15 45 -19 45 -4 0 -12 18 -19 40 -6 22 -16 40 -21 40 -5 0 -12 16
-16 35 -3 19 -10 35 -14 35 -4 0 -12 18 -19 40 -6 22 -16 40 -20 40 -5 0 -14
20 -21 45 -7 25 -16 45 -19 45 -4 0 -13 20 -20 45 -7 25 -17 45 -21 45 -4 0
-11 12 -14 26 -4 15 -14 33 -21 41 -8 8 -15 25 -15 38 0 13 -6 30 -13 37 -8 7
-20 30 -26 51 -7 20 -16 37 -21 37 -5 0 -11 14 -15 30 -4 16 -10 30 -14 30 -4
0 -13 23 -20 50 -7 28 -17 50 -21 50 -5 0 -14 17 -21 38 -6 20 -15 39 -18 42
-4 3 -13 24 -19 48 -7 23 -17 42 -22 42 -4 0 -11 14 -15 30 -4 17 -11 30 -15
30 -5 0 -15 19 -22 43 -6 23 -15 44 -19 47 -3 3 -12 23 -19 45 -7 22 -19 45
-26 53 -7 7 -16 28 -20 47 -3 19 -10 35 -14 35 -5 0 -11 14 -15 30 -4 17 -11
30 -15 30 -5 0 -15 18 -21 40 -7 22 -15 40 -19 40 -4 0 -13 20 -19 45 -6 25
-15 45 -20 45 -5 0 -12 14 -16 30 -4 17 -10 30 -15 30 -4 0 -14 20 -21 45 -7
25 -16 45 -20 45 -3 0 -12 20 -19 45 -7 25 -16 45 -21 45 -4 0 -14 18 -20 40
-7 22 -15 40 -19 40 -4 0 -11 16 -14 35 -4 19 -11 35 -16 35 -5 0 -15 18 -21
40 -7 22 -15 40 -19 40 -4 0 -13 20 -19 45 -6 25 -15 45 -20 45 -5 0 -12 14
-16 30 -4 17 -10 30 -15 30 -4 0 -14 20 -21 45 -7 25 -16 45 -20 45 -3 0 -12
20 -19 45 -7 25 -16 45 -21 45 -4 0 -14 18 -20 40 -7 22 -15 40 -19 40 -4 0
-11 16 -14 35 -4 19 -11 35 -16 35 -5 0 -15 18 -21 40 -7 22 -15 40 -19 40 -4
0 -13 20 -19 45 -6 25 -15 45 -20 45 -5 0 -12 14 -16 30 -4 17 -10 30 -14 30
-4 0 -14 18 -21 40 -7 22 -16 40 -20 40 -3 0 -12 23 -19 50 -7 28 -17 50 -22
50 -4 0 -14 18 -20 40 -7 22 -15 40 -19 40 -4 0 -11 16 -14 35 -4 19 -10 35
-15 35 -4 0 -14 18 -21 40 -7 22 -16 40 -20 40 -8 0 -30 61 -30 83 0 9 -4 17
-10 17 -5 0 -15 18 -21 40 -7 22 -16 40 -21 40 -4 0 -8 6 -8 14 0 8 -6 21 -13
28 -7 7 -19 34 -26 61 -8 26 -17 47 -21 47 -4 0 -13 18 -20 40 -7 22 -17 40
-21 40 -5 0 -11 16 -15 35 -3 19 -10 35 -14 35 -4 0 -13 18 -20 40 -7 22 -17
40 -21 40 -4 0 -13 23 -20 50 -7 28 -19 50 -26 50 -7 0 -13 -4 -13 -8 0 -5
-130 -15 -290 -22 -159 -7 -290 -17 -290 -20 0 -4 -87 -11 -192 -15 -106 -4
-195 -11 -198 -15 -3 -4 -86 -11 -185 -16 l-180 -9 -3 -52 c-2 -29 -7 -53 -11
-53 -4 0 -14 -83 -21 -185 -8 -102 -17 -185 -20 -185 -4 0 -13 -79 -20 -175
-7 -96 -16 -175 -20 -175 -4 0 -12 -83 -20 -185 -7 -102 -16 -185 -20 -185 -4
0 -11 -56 -15 -125 -4 -69 -10 -125 -15 -125 -4 0 -13 -83 -20 -185 -7 -102
-16 -185 -20 -185 -4 0 -13 -79 -20 -175 -7 -96 -16 -175 -20 -175 -3 0 -12
-83 -20 -185 -7 -102 -16 -185 -20 -185 -4 0 -11 -56 -15 -125 -4 -69 -10
-125 -15 -125 -4 0 -13 -83 -20 -185 -7 -102 -16 -185 -20 -185 -4 0 -13 -83
-20 -185 -8 -102 -17 -185 -21 -185 -3 0 -10 -52 -14 -115 -4 -63 -10 -115
-15 -115 -4 0 -13 -83 -20 -185 -7 -102 -17 -185 -21 -185 -4 0 -10 -26 -12
-57 -2 -44 -5 -53 -11 -35 -5 12 -11 22 -15 22 -4 0 -13 16 -21 35 -8 19 -17
35 -21 35 -4 0 -10 14 -14 30 -4 16 -11 30 -16 30 -6 0 -15 14 -20 30 -6 16
-14 30 -18 30 -4 0 -13 16 -21 35 -8 19 -17 35 -21 35 -4 0 -10 13 -14 29 -3
16 -12 32 -20 34 -7 3 -16 19 -20 36 -4 17 -10 31 -15 31 -4 0 -13 14 -20 30
-7 16 -16 30 -20 30 -5 0 -11 14 -15 31 -4 17 -13 33 -20 36 -8 2 -17 18 -20
34 -4 16 -10 29 -15 29 -4 0 -13 14 -20 30 -7 16 -16 30 -20 30 -5 0 -11 14
-15 31 -4 17 -13 33 -20 36 -8 2 -17 18 -20 34 -4 16 -10 29 -14 29 -4 0 -13
16 -21 35 -8 19 -17 35 -21 35 -4 0 -12 14 -18 30 -5 17 -14 30 -19 30 -5 0
-15 20 -22 44 -7 25 -18 47 -26 50 -8 3 -14 12 -14 21 0 8 -4 15 -8 15 -4 0
-14 16 -21 35 -7 19 -16 35 -21 35 -5 0 -14 17 -21 38 -6 20 -17 40 -24 44 -7
4 -16 20 -19 34 -4 15 -12 32 -19 40 -26 29 -33 40 -47 74 -8 19 -19 38 -26
43 -7 4 -15 21 -19 37 -4 17 -11 30 -16 30 -5 0 -9 7 -9 15 0 7 -6 18 -13 22
-7 4 -19 24 -27 43 -8 19 -19 38 -26 43 -7 4 -15 21 -19 37 -4 17 -10 30 -14
30 -4 0 -13 16 -21 35 -8 19 -17 35 -22 35 -4 0 -8 6 -8 13 0 8 -9 24 -20 37
-11 13 -23 34 -26 47 -4 13 -10 23 -14 23 -5 0 -11 14 -15 31 -4 17 -13 33
-21 36 -8 3 -14 11 -14 18 0 8 -6 20 -13 27 -7 7 -19 28 -26 46 -7 17 -17 32
-21 32 -5 0 -11 14 -15 31 -4 17 -13 33 -20 36 -8 2 -17 17 -20 33 -6 25 -14
38 -54 87 -6 6 -13 23 -17 38 -4 15 -12 29 -20 32 -7 2 -16 17 -19 33 -3 16
-15 38 -26 51 -10 12 -19 28 -19 36 0 7 -4 13 -9 13 -5 0 -14 14 -20 30 -5 17
-14 30 -19 30 -5 0 -15 20 -22 45 -7 25 -17 45 -22 45 -5 0 -14 14 -19 30 -6
17 -15 30 -20 30 -5 0 -9 6 -9 13 0 8 -9 24 -19 36 -11 13 -23 35 -26 51 -3
16 -12 31 -20 33 -7 3 -16 19 -20 36 -4 17 -10 31 -15 31 -4 0 -13 14 -20 30
-7 17 -16 30 -20 30 -5 0 -11 13 -15 29 -3 16 -12 32 -20 34 -7 3 -16 19 -20
36 -4 17 -10 31 -15 31 -4 0 -14 15 -21 33 -7 17 -19 38 -26 45 -7 7 -13 19
-13 27 0 7 -6 15 -14 18 -8 3 -17 19 -21 36 -4 17 -10 31 -14 31 -4 0 -13 16
-20 35 -7 19 -16 35 -21 35 -5 0 -15 18 -21 40 -7 22 -16 40 -21 40 -4 0 -8 6
-8 13 0 8 -9 24 -20 37 -11 13 -23 34 -26 47 -4 13 -10 23 -14 23 -5 0 -11 13
-15 29 -3 16 -15 39 -26 52 -10 12 -19 28 -19 36 0 7 -4 13 -9 13 -5 0 -14 14
-20 30 -5 17 -14 30 -20 30 -5 0 -12 14 -16 30 -6 27 -10 30 -46 30 -21 0 -39
-4 -39 -9 0 -4 -99 -14 -220 -21 -121 -7 -220 -16 -220 -20 0 -4 -64 -11 -142
-14 -180 -9 -188 -11 -195 -47 -3 -16 -9 -29 -13 -29 -4 0 -13 -31 -20 -70 -7
-38 -16 -70 -21 -70 -4 0 -13 -29 -20 -65 -7 -36 -16 -65 -20 -65 -4 0 -13
-29 -20 -65 -7 -36 -16 -65 -20 -65 -4 0 -10 -18 -14 -40 -4 -22 -10 -40 -15
-40 -4 0 -13 -27 -20 -60 -7 -33 -16 -60 -20 -60 -4 0 -13 -25 -20 -55 -7 -30
-16 -55 -20 -55 -4 0 -13 -27 -20 -60 -7 -33 -16 -60 -20 -60 -4 0 -11 -16
-14 -35 -4 -19 -11 -35 -15 -35 -5 0 -14 -27 -21 -60 -7 -33 -16 -60 -20 -60
-4 0 -11 -20 -14 -45 -4 -25 -14 -51 -21 -59 -8 -8 -17 -32 -21 -55 -4 -23
-10 -41 -14 -41 -4 0 -13 -27 -20 -60 -7 -33 -16 -60 -21 -60 -4 0 -13 -25
-20 -55 -7 -30 -15 -55 -19 -55 -4 0 -13 -27 -20 -60 -7 -33 -16 -60 -20 -60
-4 0 -11 -16 -14 -35 -4 -19 -11 -35 -15 -35 -5 0 -14 -27 -21 -60 -7 -33 -16
-60 -20 -60 -4 0 -12 -25 -19 -55 -7 -30 -16 -55 -21 -55 -4 0 -11 -18 -15
-40 -4 -22 -10 -40 -14 -40 -4 0 -13 -28 -20 -61 -7 -34 -18 -68 -25 -75 -8
-7 -17 -33 -20 -59 -4 -25 -11 -45 -15 -45 -5 0 -14 -27 -21 -60 -7 -33 -16
-60 -21 -60 -4 0 -11 -16 -15 -35 -3 -19 -10 -35 -14 -35 -4 0 -13 -27 -20
-60 -7 -33 -16 -60 -20 -60 -4 0 -13 -25 -20 -55 -7 -30 -17 -55 -21 -55 -4 0
-10 -18 -14 -40 -4 -22 -10 -40 -14 -40 -4 0 -13 -25 -20 -55 -7 -30 -16 -55
-21 -55 -4 0 -14 -29 -21 -65 -7 -36 -16 -65 -20 -65 -4 0 -10 -18 -14 -40 -4
-22 -13 -46 -20 -53 -7 -7 -16 -32 -20 -55 -4 -23 -10 -42 -15 -42 -4 0 -13
-27 -20 -60 -7 -33 -16 -60 -21 -60 -4 0 -13 -25 -20 -55 -7 -30 -15 -55 -19
-55 -4 0 -13 -27 -20 -60 -7 -33 -16 -60 -20 -60 -4 0 -11 -16 -14 -35 -4 -19
-11 -35 -15 -35 -5 0 -14 -27 -21 -60 -7 -33 -16 -60 -21 -60 -4 0 -11 -20
-15 -45 -3 -26 -13 -52 -20 -60 -7 -7 -16 -31 -20 -54 -4 -23 -10 -41 -14 -41
-4 0 -13 -27 -20 -60 -7 -33 -16 -60 -21 -60 -4 0 -13 -25 -20 -55 -7 -30 -15
-55 -19 -55 -4 0 -13 -27 -20 -60 -7 -33 -16 -60 -21 -60 -4 0 -11 -16 -15
-35 -3 -19 -10 -35 -14 -35 -4 0 -13 -27 -20 -60 -7 -33 -16 -60 -20 -60 -4 0
-13 -25 -20 -55 -7 -30 -17 -55 -21 -55 -4 0 -10 -18 -14 -40 -4 -22 -11 -40
-15 -40 -5 0 -12 -20 -16 -45 -3 -26 -12 -52 -19 -59 -8 -7 -19 -41 -25 -74
-7 -34 -16 -62 -20 -62 -4 0 -12 -25 -19 -55 -7 -30 -16 -55 -21 -55 -4 0 -11
-18 -15 -40 -4 -22 -10 -40 -15 -40 -4 0 -13 -27 -20 -60 -7 -33 -16 -60 -21
-60 -4 0 -13 -25 -20 -55 -7 -30 -15 -55 -19 -55 -4 0 -11 -17 -15 -37 -4 -21
-11 -40 -15 -43 -4 -3 -11 -22 -15 -43 -6 -30 -4 -37 9 -37 9 0 16 -4 16 -8 0
-5 201 -12 447 -15 296 -4 449 -10 451 -17 2 -6 40 -10 92 -10 95 0 99 3 100
68 0 12 4 22 9 22 5 0 14 29 21 65 7 36 15 65 19 65 3 0 12 30 19 67 7 37 17
70 22 73 4 3 11 22 15 43 4 20 11 37 15 37 5 0 14 25 21 55 7 30 16 55 20 55
4 0 13 25 20 55 7 30 16 55 20 55 5 0 11 16 15 35 3 19 10 35 14 35 5 0 14 25
21 55 7 30 16 55 20 55 4 0 13 25 20 55 7 30 15 55 19 55 4 0 13 20 19 45 6
25 15 45 20 45 5 0 11 18 15 41 4 23 13 47 21 55 7 8 17 34 21 59 3 25 10 45
15 45 5 0 14 20 20 45 6 25 15 45 19 45 5 0 11 18 15 40 4 22 11 40 15 40 5 0
14 25 21 55 7 30 16 55 20 55 4 0 12 23 19 50 7 28 15 50 19 50 4 0 13 25 20
55 7 30 16 55 21 55 4 0 11 18 15 40 4 22 11 40 15 40 5 0 14 25 21 55 7 30
16 55 20 55 4 0 12 23 19 50 7 28 16 50 20 50 5 0 11 18 15 40 4 22 12 46 19
53 7 7 16 30 20 51 4 21 14 45 22 53 8 8 14 25 14 38 0 13 6 30 13 37 8 7 20
37 26 66 7 28 17 52 21 52 5 0 11 18 15 40 4 22 10 40 15 40 4 0 13 22 20 50
7 28 15 50 19 50 4 0 13 25 20 55 7 30 16 55 20 55 4 0 13 25 20 55 7 30 16
55 21 55 4 0 11 18 15 40 4 22 10 40 15 40 4 0 13 23 20 50 7 28 15 50 19 50
4 0 13 25 20 55 7 30 16 55 21 55 4 0 11 18 15 40 4 22 10 40 15 40 4 0 13 20
19 45 6 25 15 45 21 45 5 0 12 20 16 45 3 26 12 52 19 58 6 7 18 36 24 65 7
28 17 52 21 52 4 0 11 16 14 35 4 19 10 35 15 35 4 0 13 25 20 55 7 30 16 55
21 55 5 0 11 10 13 23 l4 22 8 -22 c4 -13 11 -23 15 -23 4 0 11 -11 14 -25 4
-14 10 -25 15 -25 5 0 15 -16 21 -35 6 -19 15 -35 19 -35 4 0 13 -16 21 -35 8
-19 17 -35 21 -35 4 0 10 -14 14 -31 4 -17 13 -33 21 -36 8 -3 14 -11 14 -18
0 -8 6 -20 13 -27 7 -7 19 -28 26 -45 7 -18 17 -33 21 -33 5 0 11 -14 15 -31
4 -17 13 -33 20 -36 8 -2 17 -17 20 -33 6 -25 14 -38 54 -87 6 -6 13 -23 17
-38 4 -15 12 -29 20 -32 7 -2 16 -17 19 -33 3 -16 15 -38 26 -51 10 -12 19
-28 19 -36 0 -7 4 -13 9 -13 5 0 14 -13 20 -30 5 -16 14 -30 19 -30 5 0 15
-20 22 -45 7 -25 17 -45 22 -45 5 0 14 -13 19 -30 6 -16 15 -30 20 -30 5 0 9
-6 9 -13 0 -8 9 -24 19 -36 11 -13 23 -35 26 -51 3 -16 12 -31 19 -33 8 -3 16
-17 20 -32 4 -15 11 -32 17 -38 40 -49 48 -62 54 -87 3 -16 12 -31 20 -33 7
-3 16 -19 20 -36 4 -17 10 -31 15 -31 4 0 14 -15 21 -32 7 -18 19 -39 26 -46
7 -7 13 -19 13 -27 0 -7 6 -15 14 -18 8 -3 17 -19 21 -36 4 -17 10 -31 14 -31
4 0 13 -16 20 -35 7 -19 16 -35 21 -35 5 0 14 -17 21 -37 6 -21 18 -42 25 -46
8 -4 14 -15 14 -22 0 -8 4 -15 9 -15 5 0 12 -13 16 -30 4 -16 12 -33 19 -37 7
-5 18 -24 26 -43 8 -19 20 -39 27 -43 7 -4 13 -15 13 -22 0 -8 4 -15 9 -15 5
0 12 -13 16 -30 4 -16 12 -33 19 -37 7 -5 19 -25 25 -45 7 -21 16 -38 21 -38
5 0 14 -16 21 -35 7 -19 17 -35 21 -35 4 0 8 -7 8 -15 0 -7 6 -18 14 -22 7 -4
19 -25 25 -45 7 -21 16 -38 21 -38 5 0 14 -16 21 -35 7 -19 17 -35 21 -35 4 0
8 -7 8 -15 0 -9 6 -18 14 -21 8 -3 19 -25 26 -50 7 -24 17 -44 22 -44 5 0 14
-13 19 -30 6 -16 14 -30 18 -30 4 0 13 -16 21 -35 8 -19 17 -35 21 -35 4 0 10
-13 14 -29 3 -16 12 -32 20 -34 7 -3 16 -19 20 -36 4 -17 10 -31 15 -31 4 0
13 -13 20 -30 7 -16 16 -30 20 -30 5 0 11 -13 15 -29 3 -16 12 -32 20 -34 7
-3 16 -19 20 -36 4 -17 10 -31 15 -31 5 0 14 -16 21 -35 7 -19 16 -35 20 -35
4 0 12 -13 18 -30 5 -16 14 -30 20 -30 5 0 12 -14 16 -30 4 -17 10 -30 14 -30
4 0 13 -16 21 -35 8 -19 17 -35 21 -35 4 0 12 -13 18 -30 5 -16 14 -30 19 -30
5 0 15 -20 22 -44 7 -25 18 -47 26 -50 8 -3 14 -12 14 -21 0 -8 4 -15 8 -15 5
0 15 -18 22 -39 7 -22 18 -42 25 -45 7 -2 16 -17 20 -33 3 -15 12 -31 18 -35
7 -4 81 -8 165 -8 83 0 152 -4 152 -8 0 -5 216 -15 480 -22 264 -7 480 -17
480 -22 0 -4 33 -8 74 -8 l73 0 7 53 c3 28 6 71 6 95 0 23 4 42 9 42 5 0 12
56 16 125 4 69 10 125 15 125 4 0 13 83 20 185 7 102 16 185 20 185 4 0 13 81
21 180 7 99 16 180 19 180 4 0 13 70 20 155 7 85 17 155 21 155 3 0 10 48 14
108 4 59 11 109 15 112 4 3 14 74 21 158 7 83 16 152 19 152 4 0 13 72 20 160
7 88 16 160 20 160 4 0 13 70 20 155 7 85 17 155 21 155 4 0 10 50 14 110 4
61 11 110 15 110 4 0 13 72 20 160 7 88 17 160 21 160 4 0 11 44 15 98 4 53 9
89 12 80 2 -10 7 -18 12 -18 4 0 11 -16 14 -35 4 -19 11 -35 15 -35 5 0 12
-16 15 -35 4 -19 13 -40 20 -47 7 -8 19 -37 26 -66 8 -29 17 -52 21 -52 4 0
12 -22 19 -50 7 -27 15 -50 20 -50 4 0 10 -14 14 -31 3 -16 13 -37 21 -45 8
-9 15 -26 15 -39 0 -13 6 -30 14 -37 7 -8 19 -37 26 -66 8 -29 17 -52 21 -52
5 0 11 -16 15 -35 3 -19 10 -35 14 -35 4 0 13 -21 21 -47 7 -27 19 -54 26 -61
7 -7 13 -24 13 -37 0 -13 6 -30 14 -37 7 -8 19 -37 26 -66 8 -29 17 -52 21
-52 4 0 10 -14 14 -30 4 -16 10 -30 13 -30 8 0 32 -72 32 -95 0 -8 4 -15 10
-15 5 0 15 -20 21 -45 6 -25 15 -45 19 -45 4 0 11 -16 14 -35 4 -19 11 -35 15
-35 5 0 14 -23 21 -50 7 -27 15 -50 19 -50 7 0 31 -72 31 -95 0 -8 4 -15 10
-15 5 0 15 -20 21 -45 6 -25 15 -45 20 -45 4 0 11 -16 15 -35 3 -19 10 -35 14
-35 4 0 13 -22 20 -50 7 -27 15 -50 19 -50 4 0 13 -20 20 -45 7 -25 16 -45 21
-45 4 0 13 -25 20 -55 7 -30 17 -55 21 -55 5 0 11 -16 15 -35 3 -19 10 -35 14
-35 4 0 13 -20 19 -45 6 -25 15 -45 20 -45 5 0 14 -22 21 -50 7 -27 16 -50 20
-50 4 0 11 -16 14 -35 4 -19 10 -35 15 -35 4 0 14 -25 21 -55 7 -30 16 -55 20
-55 5 0 14 -20 21 -45 7 -25 16 -45 20 -45 4 0 12 -22 19 -50 7 -27 16 -50 20
-50 4 0 11 -16 14 -35 4 -19 11 -35 15 -35 5 0 12 -16 15 -35 4 -19 13 -40 20
-47 7 -8 19 -37 26 -66 8 -29 17 -52 21 -52 5 0 11 -16 15 -35 3 -19 10 -35
14 -35 4 0 13 -21 19 -46 7 -26 18 -53 26 -61 8 -8 15 -25 15 -38 0 -13 6 -30
13 -37 7 -7 19 -35 27 -63 8 -27 19 -56 26 -62 9 -10 219 -13 923 -15 l911 -3
6 33 c3 17 10 32 14 32 4 0 11 16 14 35 4 19 11 35 15 35 5 0 14 27 21 60 7
33 16 60 20 60 4 0 13 27 20 60 7 33 16 60 20 60 4 0 13 28 20 62 6 33 18 67
26 75 8 8 14 23 14 34 0 10 4 19 8 19 5 0 14 29 21 65 7 36 17 65 21 65 4 0
13 27 20 60 7 33 16 60 20 60 4 0 11 16 14 35 4 19 11 35 15 35 5 0 14 27 21
60 7 33 16 60 20 60 4 0 14 29 21 65 7 36 16 65 19 65 4 0 13 27 20 60 7 33
16 60 21 60 4 0 11 16 15 35 3 19 10 35 14 35 4 0 13 27 20 60 7 33 16 60 20
60 4 0 13 27 20 60 7 33 16 60 20 60 5 0 11 19 15 42 4 23 13 48 20 55 7 7 16
31 20 53 4 22 10 40 14 40 4 0 13 29 20 65 7 36 17 65 21 65 4 0 13 27 20 60
7 33 16 60 20 60 4 0 11 16 14 35 4 19 11 35 15 35 5 0 14 27 21 60 7 33 16
60 20 60 4 0 14 29 21 65 7 36 16 65 20 65 4 0 10 16 14 36 3 20 12 43 20 50
7 7 16 33 19 59 4 25 11 45 15 45 5 0 14 27 21 60 7 33 16 60 20 60 4 0 13 27
20 60 7 33 16 60 20 60 4 0 11 16 14 35 4 19 11 35 15 35 5 0 14 27 21 60 7
33 16 60 20 60 3 0 12 29 19 65 7 36 17 65 21 65 4 0 13 27 20 60 7 33 16 60
21 60 4 0 11 16 15 35 3 19 10 35 14 35 4 0 13 27 20 60 7 33 16 60 20 60 4 0
14 29 21 65 7 36 16 65 21 65 4 0 8 9 8 19 0 11 6 26 14 34 8 8 20 42 26 75 7
34 16 62 20 62 4 0 13 27 20 60 7 33 16 60 20 60 4 0 13 27 20 60 7 33 16 60
21 60 4 0 11 16 15 35 3 19 10 35 14 35 4 0 13 27 20 60 7 33 16 60 20 60 3 0
12 29 19 65 7 36 17 65 21 65 5 0 11 18 15 40 4 22 11 40 15 40 5 0 14 25 21
55 7 30 15 55 19 55 4 0 13 27 20 60 7 33 16 60 20 60 4 0 13 28 20 63 8 34
20 68 27 75 7 7 13 22 13 33 0 10 4 19 9 19 5 0 14 29 21 65 7 36 16 65 20 65
4 0 13 26 20 58 7 31 17 60 23 64 16 10 35 -16 48 -66 6 -25 15 -46 19 -46 4
0 13 -22 20 -50 7 -27 16 -50 21 -50 5 0 14 -20 20 -45 6 -25 15 -45 19 -45 5
0 11 -13 15 -30 4 -16 10 -30 14 -30 3 0 13 -20 20 -45 7 -25 16 -45 20 -45 4
0 13 -22 20 -50 7 -27 16 -50 20 -50 4 0 12 -20 19 -45 7 -25 16 -45 21 -45 5
0 12 -16 15 -35 4 -19 11 -35 15 -35 5 0 14 -21 22 -47 7 -27 19 -54 26 -61 7
-7 15 -28 19 -47 3 -19 10 -35 14 -35 5 0 11 -13 15 -30 4 -16 10 -30 15 -30
4 0 11 -16 14 -35 4 -19 12 -40 19 -47 7 -7 19 -34 26 -60 8 -27 17 -48 21
-48 4 0 13 -20 19 -45 6 -25 16 -45 21 -45 5 0 12 -16 16 -35 3 -19 10 -35 14
-35 5 0 14 -22 21 -50 7 -27 16 -50 19 -50 4 0 13 -18 20 -40 7 -22 16 -40 20
-40 4 0 11 -16 14 -35 4 -19 11 -35 15 -35 5 0 14 -22 21 -50 7 -27 16 -50 21
-50 5 0 14 -20 20 -45 6 -25 15 -45 19 -45 4 0 13 -22 20 -50 7 -27 16 -50 21
-50 5 0 11 -11 15 -25 3 -14 9 -25 13 -25 4 0 13 -22 20 -50 7 -27 16 -50 20
-50 4 0 12 -20 19 -45 7 -25 16 -45 21 -45 5 0 12 -16 15 -35 4 -19 11 -35 15
-35 5 0 14 -21 22 -47 7 -27 19 -54 26 -61 7 -7 15 -28 19 -47 3 -19 10 -35
14 -35 5 0 14 -22 21 -50 7 -27 16 -50 21 -50 4 0 8 -6 8 -14 0 -8 6 -21 13
-28 7 -7 19 -34 26 -60 8 -27 17 -48 21 -48 4 0 13 -20 19 -45 6 -25 15 -45
20 -45 5 0 14 -22 21 -50 7 -27 16 -50 21 -50 4 0 11 -16 15 -35 3 -19 10 -35
14 -35 4 0 13 -18 20 -40 7 -22 16 -40 20 -40 3 0 12 -22 19 -50 7 -27 17 -50
22 -50 5 0 9 -9 9 -19 0 -11 7 -26 15 -34 8 -8 19 -35 26 -61 6 -25 15 -46 19
-46 4 0 13 -23 20 -50 7 -28 16 -50 21 -50 5 0 14 -20 21 -45 7 -25 15 -45 19
-45 4 0 10 -13 14 -30 4 -17 10 -30 15 -30 4 0 11 -16 14 -35 4 -19 12 -40 19
-47 7 -7 19 -34 26 -60 8 -27 17 -48 21 -48 4 0 11 -16 14 -35 4 -19 11 -35
16 -35 6 0 15 -20 22 -45 7 -25 15 -45 19 -45 4 0 13 -22 20 -50 7 -27 16 -50
20 -50 4 0 13 -20 20 -45 7 -25 17 -45 20 -45 4 0 10 -13 14 -30 4 -16 10 -30
15 -30 4 0 13 -20 19 -45 6 -25 15 -45 20 -45 5 0 14 -22 21 -50 7 -27 16 -50
20 -50 4 0 13 -21 19 -46 7 -26 18 -53 26 -61 8 -8 15 -23 15 -34 0 -10 4 -19
9 -19 4 0 14 -20 21 -45 7 -25 16 -45 19 -45 4 0 13 -20 20 -45 7 -25 17 -45
21 -45 4 0 11 -16 14 -35 4 -19 11 -35 15 -35 5 0 14 -22 21 -50 7 -27 16 -50
21 -50 5 0 14 -20 21 -45 7 -25 15 -45 19 -45 3 0 12 -21 20 -47 7 -27 19 -54
26 -61 7 -7 13 -20 13 -28 0 -8 4 -14 8 -14 5 0 14 -22 21 -50 7 -27 16 -50
20 -50 4 0 12 -20 19 -45 7 -25 16 -45 22 -45 5 0 12 -16 16 -35 3 -19 10 -35
14 -35 5 0 14 -23 21 -50 7 -28 16 -50 20 -50 4 0 13 -20 20 -45 l13 -45 72 0
c40 0 74 -5 76 -10 2 -7 294 -13 866 -17 800 -6 862 -5 862 10 0 10 -4 17 -10
17 -5 0 -15 20 -21 45 -6 25 -15 45 -19 45 -4 0 -13 23 -20 50 -7 27 -16 50
-21 50 -5 0 -9 6 -9 14 0 8 -6 21 -13 28 -7 7 -19 34 -26 61 -8 26 -17 47 -20
47 -4 0 -12 20 -19 45 -7 25 -16 45 -22 45 -5 0 -12 16 -16 35 -3 19 -10 35
-14 35 -5 0 -14 23 -21 50 -7 28 -16 50 -19 50 -4 0 -13 18 -20 40 -7 22 -16
40 -20 40 -3 0 -12 22 -19 50 -7 28 -17 50 -22 50 -5 0 -9 9 -9 19 0 11 -6 26
-14 34 -8 7 -20 34 -27 58 -7 24 -16 46 -19 49 -11 10 -30 61 -30 80 0 11 -4
20 -10 20 -5 0 -12 11 -16 25 -3 14 -10 25 -14 25 -4 0 -13 23 -20 50 -7 28
-16 50 -21 50 -5 0 -14 20 -21 45 -7 25 -15 45 -19 45 -4 0 -13 23 -20 50 -7
28 -16 50 -20 50 -4 0 -10 11 -13 25 -4 14 -10 25 -15 25 -5 0 -14 23 -21 50
-7 28 -16 50 -20 50 -4 0 -13 20 -19 45 -6 25 -15 45 -20 45 -5 0 -15 22 -22
50 -7 27 -16 50 -20 50 -4 0 -10 11 -13 25 -4 14 -11 25 -16 25 -6 0 -10 9
-10 20 0 20 -20 72 -31 80 -4 3 -12 25 -19 49 -6 24 -18 50 -26 58 -8 8 -14
23 -14 34 0 10 -4 19 -9 19 -4 0 -14 20 -21 45 -7 25 -16 45 -19 45 -4 0 -13
20 -20 45 -7 25 -17 45 -21 45 -4 0 -13 23 -20 50 -7 28 -16 50 -21 50 -4 0
-11 16 -15 35 -3 19 -10 35 -14 35 -5 0 -14 17 -21 38 -6 20 -15 39 -18 42 -4
3 -13 24 -19 48 -7 23 -17 42 -22 42 -6 0 -10 11 -10 24 0 14 -7 31 -15 39 -8
8 -20 36 -27 61 -7 25 -15 46 -19 46 -4 0 -13 20 -20 45 -7 25 -16 45 -20 45
-3 0 -12 20 -19 45 -7 25 -17 45 -21 45 -5 0 -9 9 -9 19 0 11 -6 26 -14 34 -8
8 -20 34 -26 58 -7 24 -15 46 -19 49 -11 8 -31 60 -31 80 0 11 -4 20 -10 20
-5 0 -12 11 -16 25 -3 14 -9 25 -13 25 -4 0 -13 23 -20 50 -7 28 -17 50 -22
50 -5 0 -14 20 -20 45 -6 25 -15 45 -19 45 -5 0 -14 23 -21 50 -7 28 -16 50
-21 50 -4 0 -8 6 -8 14 0 8 -6 21 -13 28 -7 7 -19 34 -26 61 -8 26 -17 47 -21
47 -4 0 -13 20 -19 45 -6 25 -15 45 -20 45 -5 0 -14 23 -21 50 -7 28 -16 50
-20 50 -4 0 -11 11 -14 25 -4 14 -11 25 -16 25 -6 0 -10 9 -10 20 0 19 -19 70
-30 80 -3 3 -12 25 -19 49 -7 24 -19 51 -27 58 -8 8 -14 23 -14 34 0 10 -4 19
-9 19 -5 0 -15 23 -22 50 -7 28 -16 50 -19 50 -4 0 -13 18 -20 40 -7 22 -16
40 -20 40 -3 0 -12 23 -19 50 -7 28 -16 50 -21 50 -4 0 -11 16 -14 35 -4 19
-11 35 -16 35 -5 0 -15 19 -22 43 -6 23 -15 44 -19 47 -3 3 -12 22 -18 43 -7
20 -16 37 -21 37 -4 0 -11 16 -14 35 -4 19 -11 35 -15 35 -5 0 -14 23 -21 50
-7 28 -16 50 -20 50 -4 0 -14 20 -21 45 -7 25 -16 45 -20 45 -4 0 -13 23 -20
50 -7 28 -16 50 -20 50 -4 0 -10 11 -13 25 -4 14 -10 25 -15 25 -5 0 -14 23
-21 50 -7 28 -16 50 -20 50 -4 0 -13 23 -20 50 -7 28 -16 50 -21 50 -5 0 -11
11 -15 25 -3 14 -9 25 -13 25 -4 0 -13 23 -20 50 -7 28 -16 50 -20 50 -4 0
-13 20 -20 45 -7 25 -17 45 -21 45 -4 0 -13 21 -19 46 -7 26 -18 53 -26 61 -8
8 -15 25 -15 39 0 13 -4 24 -9 24 -5 0 -15 17 -22 38 -6 20 -15 39 -18 42 -4
3 -13 24 -19 48 -7 23 -17 42 -21 42 -5 0 -14 23 -21 50 -7 28 -16 50 -21 50
-4 0 -11 16 -15 35 -3 19 -10 35 -14 35 -4 0 -13 18 -20 40 -7 22 -16 40 -20
40 -3 0 -12 23 -19 50 -7 28 -17 50 -22 50 -5 0 -9 9 -9 19 0 11 -6 26 -14 34
-8 7 -20 34 -27 58 -7 24 -16 46 -19 49 -11 10 -30 61 -30 80 0 11 -4 20 -10
20 -5 0 -15 18 -21 40 -7 22 -15 40 -19 40 -4 0 -11 16 -14 35 -4 19 -11 35
-16 35 -5 0 -15 20 -21 45 -6 25 -15 45 -19 45 -4 0 -13 21 -21 48 -7 26 -19
53 -26 60 -7 7 -13 20 -13 28 0 8 -4 14 -9 14 -5 0 -14 23 -21 50 -7 28 -16
50 -20 50 -4 0 -13 20 -19 45 -6 25 -15 45 -20 45 -5 0 -15 23 -22 50 -7 28
-16 50 -21 50 -4 0 -8 6 -8 14 0 8 -6 21 -13 28 -7 7 -19 34 -26 61 -8 26 -17
47 -21 47 -5 0 -13 23 -20 50 -7 28 -16 50 -21 50 -5 0 -14 20 -20 45 -6 25
-15 45 -19 45 -5 0 -11 14 -15 30 -4 17 -10 30 -14 30 -3 0 -13 20 -20 45 -7
25 -16 45 -20 45 -4 0 -12 21 -19 46 -7 25 -19 53 -27 61 -8 8 -15 25 -15 39
0 13 -4 24 -8 24 -4 0 -14 20 -21 45 -7 25 -16 45 -20 45 -4 0 -12 21 -19 46
-7 25 -19 53 -27 61 -8 8 -15 25 -15 38 0 13 -6 30 -14 37 -7 8 -17 25 -21 38
-4 13 -14 30 -21 38 -8 7 -14 24 -14 37 0 13 -6 30 -12 37 -7 7 -19 25 -26 39
-13 24 -21 27 -89 33 -42 3 -138 6 -215 6 -76 0 -138 4 -138 8 0 5 -123 12
-272 16 -150 3 -352 9 -448 12 -96 4 -178 3 -182 -1z"/>
    </g>
</svg>
